<svg xmlns="http://www.w3.org/2000/svg" viewBox="0 0 794.68 1043.68"><path d="M281.27 129.61c14.86-.67 31.04-2.93 47.8-8.75l93.1 5.12s11.98-12.5 0-39.23c0 0-2.25-17.51 5.33-17.51 0 0 7.58-120.75 144.92-43.32l10.14 9.22v12.9l-14.75-.92-1.84 60.84 3.69 8.3-12.9-.92-16.59 35.95c1.21 2.82-1.15 5.87-4.18 5.41l-29.93-4.49s-27.9 32.4 28.35 57.18l2.68 1.07c3.06 1.26 15.84 11.34-1.69 90.58-2.81 12.69.11 25.98 8.04 36.28 21.54 28 69.57 82.58 133.15 108.01 0 0 31.34 31.34 11.98 55.31-19.36 23.97-53.46 14.75-62.68-23.97L601 487.73s-47.93-24.89-92.18-64.52c0 0-23.04 79.27-44.24 117.06 0 0 30.54 37.98 95.63 98.55a264.797 264.797 0 0140.93 48.5c53.2 81.02 107.61 158.42 123.38 161.74 17.51 3.69 63.6-10.14 66.37-3.69 1.49 3.49 4.4 3.54 3.69 7.97-.58 3.6-3.38 6.45-6.93 7.3l-105.53 25.29c.54 5.98-3 11.57-8.64 13.64l-23.5 8.6c-2.8 1.03-5.95.07-7.72-2.33l-9.49-12.94a16.15 16.15 0 00-19.79-5.11S501.45 692.38 459.05 669.33c-42.4-23.04-88.49-44.24-88.49-44.24l-80.49 157.85a193.503 193.503 0 01-37.23 50.57L123.52 959.69s-14.75-1.84-29.5 0 23.04 77.43 23.04 77.43 2.77 8.6-11.98 6.15c-14.75-2.46-73.13-86.03-73.13-86.03l-11.68.61L0 924.64l4.05-7.75a92.548 92.548 0 0127.34-31.8c43.08-31.54 153.43-114.28 175.09-149.72 27.04-44.24 60.22-125.36 61.45-138.26 1.23-12.9-6.15-36.87-106.92-95.86 0 0 12.29-61.45 86.65-110 0 0 56.53-111.23 43.63-154.86 0 0-18.44-20.28-60.22-27.04s-106.92 57.76-106.92 57.76a27.482 27.482 0 00-25.37 12.9l-16.42 26.43-23.35 10.45-9.22-3.07.61-6.76-15.98-1.84-17.21-27.04 2.73-8.18a39.93 39.93 0 0134.61-27.17l25.96-2.14 93.71-83.88c27.02-19.63 73.69-25.7 107.06-27.2z" fill="#231f20"/></svg>